<?xml version="1.0" encoding="UTF-8" standalone="yes"?><svg xmlns="http://www.w3.org/2000/svg" xmlns:xlink="http://www.w3.org/1999/xlink" height="831pt" style="width:991px;height:831px;" version="1.1" viewBox="0 0 991 831" width="991pt"><defs><filter height="300%" id="f1" width="300%" x="-1" y="-1"><feGaussianBlur result="blurOut" stdDeviation="2.0"/><feColorMatrix in="blurOut" result="blurOut2" type="matrix" values="0 0 0 0 0 0 0 0 0 0 0 0 0 0 0 0 0 0 .4 0"/><feOffset dx="4.0" dy="4.0" in="blurOut2" result="blurOut3"/><feBlend in="SourceGraphic" in2="blurOut3" mode="normal"/></filter></defs><g><text fill="#000000" font-size="18" font-weight="bold" lengthAdjust="spacingAndGlyphs" textLength="280" x="369" y="18">FTIR PROJECT - components</text><polygon fill="#FFFFFF" filter="url(#f1)" points="22,44.9531,149,44.9531,156,67.25,984,67.25,984,536.9531,22,536.9531,22,44.9531" style="stroke: #000000; stroke-width: 2.0;"/><line style="stroke: #000000; stroke-width: 2.0;" x1="22" x2="156" y1="67.25" y2="67.25"/><text fill="#000000" font-size="14" font-weight="bold" lengthAdjust="spacingAndGlyphs" textLength="121" x="26" y="60.9531">ftir_env2 / JAVA</text><polygon fill="#FFFFFF" filter="url(#f1)" points="54,382.9531,64,372.9531,243,372.9531,243,494.9531,233,504.9531,54,504.9531,54,382.9531" style="stroke: #000000; stroke-width: 2.0;"/><line style="stroke: #000000; stroke-width: 2.0;" x1="233" x2="242" y1="382.9531" y2="373.9531"/><path d="M54,382.9531 L233,382.9531 L233,504.9531 " fill="#FFFFFF" style="stroke: #000000; stroke-width: 2.0;"/><text fill="#000000" font-size="14" font-weight="bold" lengthAdjust="spacingAndGlyphs" textLength="61" x="57" y="399.9531">BRUKER</text><polygon fill="#FFFFFF" filter="url(#f1)" points="283,382.9531,293,372.9531,474,372.9531,474,494.9531,464,504.9531,283,504.9531,283,382.9531" style="stroke: #000000; stroke-width: 2.0;"/><line style="stroke: #000000; stroke-width: 2.0;" x1="464" x2="473" y1="382.9531" y2="373.9531"/><path d="M283,382.9531 L464,382.9531 L464,504.9531 " fill="#FFFFFF" style="stroke: #000000; stroke-width: 2.0;"/><text fill="#000000" font-size="14" font-weight="bold" lengthAdjust="spacingAndGlyphs" textLength="44" x="286" y="399.9531">JUEKE</text><polygon fill="#FFFFFF" filter="url(#f1)" points="283,228.9531,293,218.9531,438,218.9531,438,322.9531,428,332.9531,283,332.9531,283,228.9531" style="stroke: #000000; stroke-width: 2.0;"/><line style="stroke: #000000; stroke-width: 2.0;" x1="428" x2="437" y1="228.9531" y2="219.9531"/><path d="M283,228.9531 L428,228.9531 L428,332.9531 " fill="#FFFFFF" style="stroke: #000000; stroke-width: 2.0;"/><text fill="#000000" font-size="14" font-weight="bold" lengthAdjust="spacingAndGlyphs" textLength="27" x="286" y="245.9531">GUI</text><polygon fill="#FFFFFF" filter="url(#f1)" points="514,382.9531,524,372.9531,713,372.9531,713,494.9531,703,504.9531,514,504.9531,514,382.9531" style="stroke: #000000; stroke-width: 2.0;"/><line style="stroke: #000000; stroke-width: 2.0;" x1="703" x2="712" y1="382.9531" y2="373.9531"/><path d="M514,382.9531 L703,382.9531 L703,504.9531 " fill="#FFFFFF" style="stroke: #000000; stroke-width: 2.0;"/><text fill="#000000" font-size="14" font-weight="bold" lengthAdjust="spacingAndGlyphs" textLength="45" x="517" y="399.9531">MATH</text><polygon fill="#FFFFFF" filter="url(#f1)" points="753,382.9531,763,372.9531,952,372.9531,952,494.9531,942,504.9531,753,504.9531,753,382.9531" style="stroke: #000000; stroke-width: 2.0;"/><line style="stroke: #000000; stroke-width: 2.0;" x1="942" x2="951" y1="382.9531" y2="373.9531"/><path d="M753,382.9531 L942,382.9531 L942,504.9531 " fill="#FFFFFF" style="stroke: #000000; stroke-width: 2.0;"/><text fill="#000000" font-size="14" font-weight="bold" lengthAdjust="spacingAndGlyphs" textLength="40" x="756" y="399.9531">USER</text><polygon fill="#FFFFFF" filter="url(#f1)" points="128,98.9531,138,88.9531,455,88.9531,455,176.9531,445,186.9531,128,186.9531,128,98.9531" style="stroke: #000000; stroke-width: 2.0;"/><line style="stroke: #000000; stroke-width: 2.0;" x1="445" x2="454" y1="98.9531" y2="89.9531"/><path d="M128,98.9531 L445,98.9531 L445,186.9531 " fill="#FFFFFF" style="stroke: #000000; stroke-width: 2.0;"/><text fill="#000000" font-size="14" font-weight="bold" lengthAdjust="spacingAndGlyphs" textLength="154" x="131" y="115.9531">ABLAUFSTEUERUNG</text><path d="M202,570.9531 C202,560.9531 406,560.9531 406,560.9531 C406,560.9531 610,560.9531 610,570.9531 L610,710.9531 C610,720.9531 406,720.9531 406,720.9531 C406,720.9531 202,720.9531 202,710.9531 L202,570.9531 " fill="#FFFFFF" filter="url(#f1)" style="stroke: #000000; stroke-width: 2.0;"/><path d="M202,570.9531 C202,580.9531 406,580.9531 406,580.9531 C406,580.9531 610,580.9531 610,570.9531 " fill="none" style="stroke: #000000; stroke-width: 2.0;"/><text fill="#000000" font-size="14" font-weight="bold" lengthAdjust="spacingAndGlyphs" textLength="46" x="383" y="595.9531">db H2</text><rect fill="#FFFFFF" filter="url(#f1)" height="92" style="stroke: #000000; stroke-width: 2.0;" width="72" x="226" y="604.9531"/><path d="M289,605.9531 L289,614.25 L279,624.25 L226,624.25 " fill="#FFFFFF" style="stroke: #000000; stroke-width: 2.0;"/><text fill="#000000" font-size="14" font-weight="bold" lengthAdjust="spacingAndGlyphs" textLength="53" x="229" y="619.9531">bruker</text><rect fill="#FFFFFF" filter="url(#f1)" height="92" style="stroke: #000000; stroke-width: 2.0;" width="72" x="322" y="604.9531"/><path d="M375,605.9531 L375,614.25 L365,624.25 L322,624.25 " fill="#FFFFFF" style="stroke: #000000; stroke-width: 2.0;"/><text fill="#000000" font-size="14" font-weight="bold" lengthAdjust="spacingAndGlyphs" textLength="43" x="325" y="619.9531">jueke</text><rect fill="#FFFFFF" filter="url(#f1)" height="92" style="stroke: #000000; stroke-width: 2.0;" width="72" x="418" y="604.9531"/><path d="M467,605.9531 L467,614.25 L457,624.25 L418,624.25 " fill="#FFFFFF" style="stroke: #000000; stroke-width: 2.0;"/><text fill="#000000" font-size="14" font-weight="bold" lengthAdjust="spacingAndGlyphs" textLength="39" x="421" y="619.9531">math</text><rect fill="#FFFFFF" filter="url(#f1)" height="92" style="stroke: #000000; stroke-width: 2.0;" width="72" x="514" y="604.9531"/><path d="M560,605.9531 L560,614.25 L550,624.25 L514,624.25 " fill="#FFFFFF" style="stroke: #000000; stroke-width: 2.0;"/><text fill="#000000" font-size="14" font-weight="bold" lengthAdjust="spacingAndGlyphs" textLength="36" x="517" y="619.9531">user</text><rect fill="#FEFECE" filter="url(#f1)" height="62.5938" style="stroke: #A80036; stroke-width: 1.5;" width="121" x="97.75" y="417.4531"/><rect fill="#FEFECE" height="10" style="stroke: #A80036; stroke-width: 1.5;" width="15" x="198.75" y="422.4531"/><rect fill="#FEFECE" height="2" style="stroke: #A80036; stroke-width: 1.5;" width="4" x="196.75" y="424.4531"/><rect fill="#FEFECE" height="2" style="stroke: #A80036; stroke-width: 1.5;" width="4" x="196.75" y="428.4531"/><text fill="#000000" font-size="14" lengthAdjust="spacingAndGlyphs" textLength="81" x="112.75" y="451.4531">talk via LAN/</text><text fill="#000000" font-size="14" lengthAdjust="spacingAndGlyphs" textLength="62" x="122.25" y="467.75">localhost</text><rect fill="#FEFECE" filter="url(#f1)" height="62.5938" style="stroke: #A80036; stroke-width: 1.5;" width="124" x="326.5" y="417.4531"/><rect fill="#FEFECE" height="10" style="stroke: #A80036; stroke-width: 1.5;" width="15" x="430.5" y="422.4531"/><rect fill="#FEFECE" height="2" style="stroke: #A80036; stroke-width: 1.5;" width="4" x="428.5" y="424.4531"/><rect fill="#FEFECE" height="2" style="stroke: #A80036; stroke-width: 1.5;" width="4" x="428.5" y="428.4531"/><text fill="#000000" font-size="14" lengthAdjust="spacingAndGlyphs" textLength="84" x="341.5" y="451.4531">talk via USB/</text><text fill="#000000" font-size="14" lengthAdjust="spacingAndGlyphs" textLength="84" x="341.5" y="467.75">Serial(RXTX)</text><rect fill="#FEFECE" filter="url(#f1)" height="46.2969" style="stroke: #A80036; stroke-width: 1.5;" width="88" x="326.5" y="262.9531"/><rect fill="#FEFECE" height="10" style="stroke: #A80036; stroke-width: 1.5;" width="15" x="394.5" y="267.9531"/><rect fill="#FEFECE" height="2" style="stroke: #A80036; stroke-width: 1.5;" width="4" x="392.5" y="269.9531"/><rect fill="#FEFECE" height="2" style="stroke: #A80036; stroke-width: 1.5;" width="4" x="392.5" y="273.9531"/><text fill="#000000" font-size="14" lengthAdjust="spacingAndGlyphs" textLength="48" x="341.5" y="296.9531">Java-FX</text><rect fill="#FEFECE" filter="url(#f1)" height="62.5938" style="stroke: #A80036; stroke-width: 1.5;" width="131" x="557.75" y="417.4531"/><rect fill="#FEFECE" height="10" style="stroke: #A80036; stroke-width: 1.5;" width="15" x="668.75" y="422.4531"/><rect fill="#FEFECE" height="2" style="stroke: #A80036; stroke-width: 1.5;" width="4" x="666.75" y="424.4531"/><rect fill="#FEFECE" height="2" style="stroke: #A80036; stroke-width: 1.5;" width="4" x="666.75" y="428.4531"/><text fill="#000000" font-size="14" lengthAdjust="spacingAndGlyphs" textLength="91" x="572.75" y="451.4531">Kenai-Project</text><text fill="#000000" font-size="14" lengthAdjust="spacingAndGlyphs" textLength="72" x="582.25" y="467.75">javaoctave</text><rect fill="#FEFECE" filter="url(#f1)" height="62.5938" style="stroke: #A80036; stroke-width: 1.5;" width="132" x="796" y="417.4531"/><rect fill="#FEFECE" height="10" style="stroke: #A80036; stroke-width: 1.5;" width="15" x="908" y="422.4531"/><rect fill="#FEFECE" height="2" style="stroke: #A80036; stroke-width: 1.5;" width="4" x="906" y="424.4531"/><rect fill="#FEFECE" height="2" style="stroke: #A80036; stroke-width: 1.5;" width="4" x="906" y="428.4531"/><text fill="#000000" font-size="14" lengthAdjust="spacingAndGlyphs" textLength="31" x="841.5" y="451.4531">user</text><text fill="#000000" font-size="14" lengthAdjust="spacingAndGlyphs" textLength="92" x="811" y="467.75">management</text><rect fill="#FEFECE" filter="url(#f1)" height="46.2969" style="stroke: #A80036; stroke-width: 1.5;" width="130" x="309" y="124.9531"/><rect fill="#FEFECE" height="10" style="stroke: #A80036; stroke-width: 1.5;" width="15" x="419" y="129.9531"/><rect fill="#FEFECE" height="2" style="stroke: #A80036; stroke-width: 1.5;" width="4" x="417" y="131.9531"/><rect fill="#FEFECE" height="2" style="stroke: #A80036; stroke-width: 1.5;" width="4" x="417" y="135.9531"/><text fill="#000000" font-size="14" lengthAdjust="spacingAndGlyphs" textLength="90" x="324" y="158.9531">list of actions</text><rect fill="#FEFECE" filter="url(#f1)" height="46.2969" style="stroke: #A80036; stroke-width: 1.5;" width="130" x="144" y="124.9531"/><rect fill="#FEFECE" height="10" style="stroke: #A80036; stroke-width: 1.5;" width="15" x="254" y="129.9531"/><rect fill="#FEFECE" height="2" style="stroke: #A80036; stroke-width: 1.5;" width="4" x="252" y="131.9531"/><rect fill="#FEFECE" height="2" style="stroke: #A80036; stroke-width: 1.5;" width="4" x="252" y="135.9531"/><text fill="#000000" font-size="14" lengthAdjust="spacingAndGlyphs" textLength="90" x="159" y="158.9531">gui controller</text><ellipse cx="262.25" cy="652.9531" fill="#FEFECE" filter="url(#f1)" rx="8" ry="8" style="stroke: #A80036; stroke-width: 2.0;"/><text fill="#000000" font-size="14" lengthAdjust="spacingAndGlyphs" textLength="39" x="242.75" y="678.9531">data1</text><ellipse cx="358.25" cy="652.9531" fill="#FEFECE" filter="url(#f1)" rx="8" ry="8" style="stroke: #A80036; stroke-width: 2.0;"/><text fill="#000000" font-size="14" lengthAdjust="spacingAndGlyphs" textLength="39" x="338.75" y="678.9531">data2</text><ellipse cx="454.25" cy="652.9531" fill="#FEFECE" filter="url(#f1)" rx="8" ry="8" style="stroke: #A80036; stroke-width: 2.0;"/><text fill="#000000" font-size="14" lengthAdjust="spacingAndGlyphs" textLength="39" x="434.75" y="678.9531">data3</text><ellipse cx="550.25" cy="652.9531" fill="#FEFECE" filter="url(#f1)" rx="8" ry="8" style="stroke: #A80036; stroke-width: 2.0;"/><text fill="#000000" font-size="14" lengthAdjust="spacingAndGlyphs" textLength="39" x="530.75" y="678.9531">data4</text><path d="M65.3187,504.8761 C68.1427,518.8451 72.9473,533.2101 81,544.9531 C120.091,601.9601 197.685,636.7671 237.371,651.59 " fill="none" style="stroke: #A80036; stroke-width: 1.0;"/><polygon fill="#A80036" points="242.48,653.466,235.4095,646.6098,237.7862,651.7431,232.6529,654.1199,242.48,653.466" style="stroke: #A80036; stroke-width: 1.0;"/><path d="M300.078,504.9521 C302.787,518.1791 306.097,532.1741 310,544.9531 C319.911,577.4061 335.695,613.2601 346.436,636.1661 " fill="none" style="stroke: #A80036; stroke-width: 1.0;"/><polygon fill="#A80036" points="348.647,640.8514,348.4246,631.0051,346.5137,636.3294,341.1894,634.4184,348.647,640.8514" style="stroke: #A80036; stroke-width: 1.0;"/><path d="M514.34,473.6091 C501.312,513.8411 474.978,595.1671 461.834,635.7611 " fill="none" style="stroke: #A80036; stroke-width: 1.0;"/><polygon fill="#A80036" points="460.213,640.7661,466.7905,633.4356,461.7529,636.0092,459.1793,630.9717,460.213,640.7661" style="stroke: #A80036; stroke-width: 1.0;"/><path d="M753.09,467.9331 C743.621,488.1471 726.334,521.2361 705,544.9531 C665.38,588.9981 606.553,627.0581 573.948,646.3909 " fill="none" style="stroke: #A80036; stroke-width: 1.0;"/><polygon fill="#A80036" points="569.333,649.1059,579.1186,647.9918,573.643,646.5714,575.0634,641.0958,569.333,649.1059" style="stroke: #A80036; stroke-width: 1.0;"/><path d="M297.847,332.7091 C300.667,338.9931 304.582,344.7281 310,348.9531 C337.373,370.3001 436.142,339.2501 466,356.9531 C489.164,370.6871 504.064,398.1071 512.624,419.2751 " fill="none" style="stroke: #A80036; stroke-width: 1.0;"/><polygon fill="#A80036" points="514.459,423.9611,514.9051,414.1224,512.6373,419.3048,507.4549,417.0371,514.459,423.9611" style="stroke: #A80036; stroke-width: 1.0;"/><path d="M291,332.8361 C291,343.8801 291,355.9981 291,368.0971 " fill="none" style="stroke: #A80036; stroke-width: 1.0;"/><polygon fill="#A80036" points="291,373.3731,295,364.3731,291,368.3731,287,364.3731,291,373.3731" style="stroke: #A80036; stroke-width: 1.0;"/><path d="M283.256,286.9671 C252.424,287.4681 137.348,293.6631 81,356.9531 C77.887,360.4491 75.2356,364.3221 72.981,368.4401 " fill="none" style="stroke: #A80036; stroke-width: 1.0;"/><polygon fill="#A80036" points="70.6873,372.9991,78.3054,366.757,72.9344,368.5325,71.1589,363.1616,70.6873,372.9991" style="stroke: #A80036; stroke-width: 1.0;"/><path d="M297.6,332.5571 C300.444,338.9411 304.43,344.7461 310,348.9531 C327.515,362.1811 685.949,346.0531 705,356.9531 C727.876,370.0421 742.609,396.6321 751.192,417.7061 " fill="none" style="stroke: #A80036; stroke-width: 1.0;"/><polygon fill="#A80036" points="753.034,422.3841,753.4587,412.5444,751.2022,417.7318,746.0149,415.4753,753.034,422.3841" style="stroke: #A80036; stroke-width: 1.0;"/><path d="M339.783,171.1171 C328.781,179.8171 317.508,190.6741 310,202.9531 C307.802,206.5471 305.858,210.3721 304.139,214.3301 " fill="none" style="stroke: #A80036; stroke-width: 1.0;"/><polygon fill="#A80036" points="302.223,219.0311,309.3241,212.2066,304.1102,214.401,301.9158,209.1871,302.223,219.0311" style="stroke: #A80036; stroke-width: 1.0;"/><path d="M222.357,171.1061 C238.696,198.2051 265.997,243.4841 280.765,267.9781 " fill="none" style="stroke: #A80036; stroke-width: 1.0;"/><polygon fill="#A80036" points="283.371,272.3001,282.1494,262.5273,280.7893,268.0182,275.2984,266.6581,283.371,272.3001" style="stroke: #A80036; stroke-width: 1.0;"/><polygon fill="#DDDDDD" points="8,754.9531,8,830.1406,137,830.1406,137,754.9531,8,754.9531" style="stroke: #000000; stroke-width: 1.0;"/><text fill="#000000" font-size="14" lengthAdjust="spacingAndGlyphs" textLength="47" x="14" y="773.9531">TOOLS</text><text fill="#000000" font-size="14" lengthAdjust="spacingAndGlyphs" textLength="45" x="14" y="790.25">Maven</text><text fill="#000000" font-size="14" lengthAdjust="spacingAndGlyphs" textLength="62" x="14" y="806.5469">Java-8-FX</text><text fill="#000000" font-size="14" lengthAdjust="spacingAndGlyphs" textLength="117" x="14" y="822.8438">JPA/Hiberante/H2</text></g></svg>